<?xml version="1.0" encoding="UTF-8"?>
<svg xmlns="http://www.w3.org/2000/svg" width="720" height="280" viewBox="0 0 720 280" role="img"><title>Quality features</title><rect width="100%" height="100%" fill="#0a1628"/><text x="24" y="32" fill="#00d4ff" font-family="system-ui,sans-serif" font-size="16" font-weight="700">Quality · scientific features executed</text><text x="16" y="70" fill="#94a3b8" font-family="system-ui,sans-serif" font-size="11">schema_validation</text><rect x="160" y="56" width="400" height="16" rx="3" fill="#34d399"/><text x="16" y="98" fill="#94a3b8" font-family="system-ui,sans-serif" font-size="11">provenance</text><rect x="160" y="84" width="400" height="16" rx="3" fill="#34d399"/><text x="16" y="126" fill="#94a3b8" font-family="system-ui,sans-serif" font-size="11">freshness_sla</text><rect x="160" y="112" width="400" height="16" rx="3" fill="#34d399"/><text x="16" y="154" fill="#94a3b8" font-family="system-ui,sans-serif" font-size="11">temporal_index</text><rect x="160" y="140" width="400" height="16" rx="3" fill="#34d399"/><text x="16" y="182" fill="#94a3b8" font-family="system-ui,sans-serif" font-size="11">aoi_filter</text><rect x="160" y="168" width="400" height="16" rx="3" fill="#34d399"/><text x="16" y="210" fill="#94a3b8" font-family="system-ui,sans-serif" font-size="11">statistical_baseline</text><rect x="160" y="196" width="400" height="16" rx="3" fill="#34d399"/><text x="16" y="238" fill="#94a3b8" font-family="system-ui,sans-serif" font-size="11">multi_source_fusion</text><rect x="160" y="224" width="400" height="16" rx="3" fill="#34d399"/><text x="16" y="266" fill="#94a3b8" font-family="system-ui,sans-serif" font-size="11">stac_export</text><rect x="160" y="252" width="400" height="16" rx="3" fill="#34d399"/></svg>
